<?xml version="1.0" standalone="no"?>
<!DOCTYPE svg PUBLIC "-//W3C//DTD SVG 20010904//EN"
 "http://www.w3.org/TR/2001/REC-SVG-20010904/DTD/svg10.dtd">
<svg version="1.0" xmlns="http://www.w3.org/2000/svg"
 width="700.000000pt" height="700.000000pt" viewBox="0 0 700.000000 700.000000"
 preserveAspectRatio="xMidYMid meet">
<metadata>
Created by potrace 1.11, written by Peter Selinger 2001-2013
</metadata>
<g transform="translate(0.000000,700.000000) scale(0.100000,-0.100000)"
fill="#000000" stroke="none">
<path d="M5465 6990 c-34 -6 -143 -24 -210 -35 -11 -1 -47 -6 -80 -9 -33 -4
-67 -9 -75 -11 -8 -2 -51 -7 -95 -10 -44 -4 -91 -8 -105 -10 -14 -2 -63 -7
-110 -10 -47 -3 -110 -8 -140 -10 -238 -17 -726 -22 -945 -10 -71 4 -157 8
-190 9 l-60 1 0 -83 c-1 -46 3 -86 9 -89 5 -3 31 -7 58 -9 137 -9 248 -75 312
-185 32 -56 70 -166 81 -234 5 -27 10 -57 11 -65 14 -69 17 -231 19 -880 1
-410 0 -748 -2 -752 -2 -4 -21 4 -42 17 -121 81 -375 157 -601 182 -93 10
-421 11 -515 1 -162 -17 -365 -64 -493 -114 -620 -243 -1011 -771 -1142 -1544
-5 -30 -12 -68 -15 -85 -2 -16 -7 -57 -11 -90 -3 -33 -7 -71 -10 -85 -23 -143
-22 -792 1 -933 2 -12 7 -49 10 -82 33 -328 121 -660 244 -921 197 -417 545
-729 961 -862 88 -28 112 -34 195 -48 17 -3 36 -7 43 -9 54 -19 402 -27 517
-12 342 43 613 230 806 555 23 40 45 75 48 77 4 2 6 -132 6 -297 0 -165 3
-302 7 -304 5 -3 63 4 130 15 68 12 141 23 163 26 22 3 51 8 65 10 14 3 57 8
95 11 39 4 84 8 100 10 17 2 68 6 115 9 47 4 103 8 125 11 111 10 432 19 700
18 266 0 364 -4 523 -19 l42 -4 0 93 0 93 -42 1 c-24 1 -54 5 -68 8 -14 3 -36
7 -50 10 -83 16 -191 100 -232 179 -49 94 -81 234 -93 405 -3 47 -6 1434 -6
3083 0 1648 -3 2996 -7 2996 -4 -1 -25 -5 -47 -9z m-1735 -2495 c81 -21 205
-78 211 -96 8 -23 3 -3381 -5 -3419 -28 -139 -84 -248 -176 -340 -80 -80 -217
-152 -325 -171 -247 -43 -403 64 -526 363 -25 61 -62 180 -75 241 -22 103 -32
159 -49 277 -12 84 -14 95 -20 180 -4 47 -9 96 -10 110 -27 214 -27 1214 -1
1475 2 17 7 64 10 105 4 41 9 86 11 100 2 14 9 61 15 105 23 164 40 248 77
390 79 305 208 516 380 625 44 28 140 64 193 73 55 9 229 -1 290 -18z"/>
</g>
</svg>
