<svg width="71" height="20" viewBox="0 0 71 20" fill="none" xmlns="http://www.w3.org/2000/svg">
<path d="M67.2684 0C68.1004 0 68.7404 0.176 69.1884 0.528C69.6524 0.880001 69.8845 1.392 69.8845 2.064C69.8845 2.736 69.6524 3.248 69.1884 3.6C68.7404 3.952 68.1004 4.128 67.2684 4.128C66.4204 4.128 65.7724 3.952 65.3244 3.6C64.8764 3.248 64.6525 2.736 64.6525 2.064C64.6525 1.392 64.8764 0.880001 65.3244 0.528C65.7724 0.176 66.4204 0 67.2684 0ZM69.5724 16.536C69.5724 17.192 69.6685 17.648 69.8605 17.904C70.0685 18.144 70.4204 18.264 70.9164 18.264V18.768C69.1884 18.704 68.0525 18.672 67.5085 18.672C66.9645 18.672 65.7644 18.704 63.9084 18.768V18.264C64.4044 18.264 64.7485 18.144 64.9405 17.904C65.1485 17.648 65.2524 17.192 65.2524 16.536V8.928C65.2524 8.192 65.1485 7.656 64.9405 7.32C64.7485 6.984 64.4044 6.816 63.9084 6.816V6.312C64.4204 6.36 64.9164 6.384 65.3964 6.384C67.0604 6.384 68.4524 6.272 69.5724 6.048V16.536Z" fill="#DF4D4D"/>
<path d="M61.1138 5.97601C61.8978 5.97601 62.4578 6.21601 62.7938 6.69601C63.1458 7.17601 63.3218 7.74401 63.3218 8.40001C63.3218 9.12001 63.1138 9.69602 62.6978 10.128C62.2978 10.544 61.7698 10.752 61.1138 10.752C60.4258 10.752 59.8978 10.6 59.5298 10.296C59.1618 9.97601 58.9778 9.55202 58.9778 9.02402C58.9778 8.08002 59.3858 7.33601 60.2018 6.79202C59.9138 6.79202 59.6578 6.84801 59.4338 6.96001C59.0338 7.13601 58.6978 7.42401 58.4258 7.82401C58.1538 8.20801 58.0178 8.63201 58.0178 9.09601V16.296C58.0178 17.048 58.1698 17.568 58.4738 17.856C58.7938 18.128 59.3298 18.264 60.0818 18.264V18.768C59.8738 18.768 59.6978 18.76 59.5538 18.744C57.8738 18.696 56.7538 18.672 56.1938 18.672C55.6978 18.672 54.5858 18.696 52.8578 18.744C52.7298 18.76 52.5618 18.768 52.3538 18.768V18.264C52.8498 18.264 53.1938 18.144 53.3858 17.904C53.5938 17.648 53.6978 17.192 53.6978 16.536V8.92801C53.6978 8.19201 53.5938 7.65601 53.3858 7.32001C53.1938 6.98401 52.8498 6.81601 52.3538 6.81601V6.31201C52.8658 6.36001 53.3618 6.38401 53.8418 6.38401C55.5058 6.38401 56.8978 6.27201 58.0178 6.04801V7.77601C58.6258 6.57601 59.6578 5.97601 61.1138 5.97601Z" fill="#DF4D4D"/>
<path d="M44.9336 5.97601C46.9016 5.97601 48.4216 6.49601 49.4936 7.53601C50.5656 8.56001 51.1016 10.232 51.1016 12.552C51.1016 14.872 50.5656 16.544 49.4936 17.568C48.4216 18.592 46.9016 19.104 44.9336 19.104C42.9656 19.104 41.4456 18.592 40.3736 17.568C39.3016 16.544 38.7656 14.872 38.7656 12.552C38.7656 10.232 39.3016 8.56001 40.3736 7.53601C41.4456 6.49601 42.9656 5.97601 44.9336 5.97601ZM44.9336 6.45601C44.4216 6.45601 44.0136 6.96001 43.7096 7.96801C43.4056 8.97601 43.2536 10.504 43.2536 12.552C43.2536 14.6 43.4056 16.128 43.7096 17.136C44.0136 18.128 44.4216 18.624 44.9336 18.624C45.4456 18.624 45.8536 18.128 46.1576 17.136C46.4616 16.128 46.6136 14.6 46.6136 12.552C46.6136 10.504 46.4616 8.97601 46.1576 7.96801C45.8536 6.96001 45.4456 6.45601 44.9336 6.45601Z" fill="#DF4D4D"/>
<path d="M32.8393 5.97601C33.4953 5.97601 34.0953 6.04801 34.6393 6.19201C35.1993 6.32001 35.6553 6.48801 36.0073 6.69601C36.4553 6.95201 36.8073 7.29601 37.0633 7.72801C37.3193 8.16001 37.4473 8.64801 37.4473 9.19201C37.4473 9.86401 37.2313 10.424 36.7993 10.872C36.3673 11.304 35.8153 11.52 35.1433 11.52C34.4553 11.52 33.9113 11.328 33.5113 10.944C33.1273 10.544 32.9353 10.016 32.9353 9.36001C32.9353 8.78401 33.1193 8.28001 33.4873 7.84801C33.8713 7.40001 34.3433 7.10401 34.9033 6.96001C34.6633 6.76801 34.3433 6.67201 33.9433 6.67201C32.9193 6.67201 32.1993 7.22401 31.7833 8.32801C31.3673 9.41601 31.1593 10.712 31.1593 12.216C31.1593 13.752 31.4473 14.848 32.0233 15.504C32.5993 16.16 33.3113 16.488 34.1593 16.488C35.3273 16.488 36.2953 15.952 37.0633 14.88L37.4713 15.024C37.1193 16.144 36.5193 17.104 35.6713 17.904C34.8393 18.704 33.7673 19.104 32.4553 19.104C30.7113 19.104 29.3113 18.584 28.2553 17.544C27.1993 16.504 26.6713 14.84 26.6713 12.552C26.6713 10.36 27.2313 8.72001 28.3513 7.63201C29.4873 6.52801 30.9833 5.97601 32.8393 5.97601Z" fill="#DF4D4D"/>
<path d="M21.873 16.488C23.041 16.488 24.009 15.952 24.777 14.88L25.185 15.024C24.833 16.144 24.233 17.104 23.385 17.904C22.553 18.704 21.481 19.104 20.169 19.104C18.489 19.104 17.145 18.584 16.137 17.544C15.129 16.504 14.625 14.84 14.625 12.552C14.625 10.36 15.185 8.72001 16.305 7.63201C17.441 6.52801 18.937 5.97601 20.793 5.97601C23.817 5.97601 25.329 7.76801 25.329 11.352H19.137C19.121 11.544 19.113 11.832 19.113 12.216C19.113 13.752 19.377 14.848 19.905 15.504C20.449 16.16 21.105 16.488 21.873 16.488ZM20.625 6.52801C19.729 6.52801 19.201 7.98401 19.041 10.896H21.825C21.841 9.61601 21.745 8.56801 21.537 7.75201C21.345 6.93601 21.041 6.52801 20.625 6.52801Z" fill="#DF4D4D"/>
<path d="M12.144 16.128C12.144 16.864 12.24 17.4 12.432 17.736C12.64 18.072 12.992 18.24 13.488 18.24V18.744C12.992 18.696 12.496 18.672 12 18.672C10.336 18.672 8.944 18.784 7.824 19.008V17.304C7.488 17.928 7.088 18.384 6.624 18.672C6.176 18.96 5.6 19.104 4.896 19.104C3.424 19.104 2.24 18.56 1.344 17.472C0.448 16.368 0 14.696 0 12.456C0 10.328 0.472 8.72 1.416 7.632C2.376 6.528 3.68 5.976 5.328 5.976C6.352 5.976 7.184 6.176 7.824 6.576V2.88C7.824 2.144 7.72 1.608 7.512 1.272C7.32 0.936001 6.976 0.768 6.48 0.768V0.264001C6.976 0.312001 7.472 0.336001 7.968 0.336001C9.632 0.336001 11.024 0.224001 12.144 0V16.128ZM6.096 17.856C6.56 17.856 6.96 17.696 7.296 17.376C7.648 17.04 7.824 16.624 7.824 16.128V7.08C7.472 6.872 7.096 6.768 6.696 6.768C5.944 6.768 5.384 7.248 5.016 8.208C4.664 9.152 4.488 10.592 4.488 12.528C4.488 14.496 4.632 15.88 4.92 16.68C5.208 17.464 5.6 17.856 6.096 17.856Z" fill="#DF4D4D"/>
</svg>
