<svg width="168" height="115" viewBox="0 0 168 115" fill="none" xmlns="http://www.w3.org/2000/svg">
<path fill-rule="evenodd" clip-rule="evenodd" d="M55.0924 0.0677268C56.208 -0.178161 57.3638 0.257579 58.0382 1.17831L78.7368 29.4405L98.0094 6.85514C98.71 6.03413 99.8119 5.6736 100.863 5.92136C101.915 6.16912 102.739 6.9835 102.998 8.03058L116.371 62.1227C116.503 62.6572 116.479 63.2184 116.301 63.7395L110.219 81.5426L134.989 63.0378C135.582 62.5947 136.324 62.3968 137.059 62.4853L148.912 63.91C149.725 64.0076 150.457 64.4454 150.926 65.1141L167.478 88.6841C168.239 89.7667 168.161 91.2275 167.291 92.224C166.42 93.2205 164.981 93.4958 163.803 92.8912L138.921 80.1196L103.764 114.188C102.819 115.104 101.372 115.263 100.25 114.574L84.7573 105.063L69.4413 113.806C68.4967 114.346 67.3282 114.307 66.4211 113.707L1.28978 70.635C0.0747718 69.8315 -0.347425 68.2485 0.306477 66.9483C0.960379 65.648 2.48424 65.0404 3.85557 65.5331L46.0871 80.7054L40.0095 70.6824C39.6368 70.0678 39.5081 69.3362 39.6488 68.6317L52.8888 2.31319C53.1121 1.19463 53.9767 0.313615 55.0924 0.0677268ZM50.8247 88.5184L24.4135 79.0298L58.9003 101.837L50.8247 88.5184ZM69.0206 107.423L81.4515 100.326L78.6572 89.9778L49.9957 76.0474L69.0206 107.423ZM45.7321 67.5798L56.2677 14.8072L76.4665 82.5178L45.7321 67.5798ZM82.7585 83.4629L102.028 70.9849L63.2352 18.017L82.7585 83.4629ZM102.726 77.3864L84.4232 89.2387L87.2938 99.8696L99.4345 107.323L101.623 89.1101L102.726 77.3864ZM107.199 90.9803L105.586 104.409L142.231 68.8984L137.516 68.3317L107.199 90.9803ZM148.15 71.1768L143.283 75.8928L156.071 82.4568L148.15 71.1768ZM108.193 69.6598L82.2315 34.2122L98.7516 14.8525L110.576 62.6817L108.193 69.6598Z" fill="#A41F1F"/>
</svg>
