<svg width="147" height="100" viewBox="0 0 147 100" fill="none" xmlns="http://www.w3.org/2000/svg">
<path fill-rule="evenodd" clip-rule="evenodd" d="M47.9064 0.0588929C48.8766 -0.154923 49.8816 0.223982 50.468 1.02462L68.4668 25.6005L85.2256 5.96099C85.8348 5.24707 86.793 4.93356 87.7073 5.14901C88.6216 5.36445 89.3383 6.07261 89.5634 6.98312L101.192 54.0197C101.307 54.4845 101.286 54.9725 101.131 55.4257L95.8427 70.9066L117.382 54.8155C117.898 54.4302 118.542 54.2581 119.182 54.335L129.489 55.5739C130.195 55.6588 130.832 56.0395 131.24 56.6209L145.633 77.1166C146.294 78.058 146.227 79.3282 145.47 80.1948C144.713 81.0613 143.462 81.3007 142.437 80.775L120.801 69.6692L90.2297 99.2938C89.4078 100.09 88.1492 100.229 87.1735 99.6295L73.702 91.3589L60.3838 98.9621C59.5623 99.431 58.5463 99.3977 57.7575 98.876L1.12155 61.4217C0.0650189 60.723 -0.302109 59.3465 0.266501 58.2159C0.835112 57.0852 2.16021 56.5569 3.35267 56.9853L40.0757 70.1786L34.7908 61.4629C34.4668 60.9285 34.3549 60.2923 34.4772 59.6797L45.9903 2.01147C46.1845 1.03881 46.9363 0.272708 47.9064 0.0588929ZM44.1954 76.9726L21.2291 68.7216L51.2177 88.5535L44.1954 76.9726ZM60.0179 93.411L70.8274 87.2402L68.3976 78.2416L43.4745 66.1282L60.0179 93.411ZM39.767 58.7651L48.9285 12.8758L66.4926 71.7546L39.767 58.7651ZM71.9639 72.5764L88.7199 61.726L54.9871 15.6669L71.9639 72.5764ZM89.3272 67.2926L73.4115 77.5989L75.9076 86.8432L86.4648 93.3245L88.3676 77.4871L89.3272 67.2926ZM93.2168 79.1133L91.8138 90.7905L123.679 59.9117L119.58 59.4189L93.2168 79.1133ZM128.826 61.8929L124.594 65.9938L135.714 71.7015L128.826 61.8929ZM94.0805 60.5738L71.5057 29.7498L85.871 12.9152L96.1534 54.5059L94.0805 60.5738Z" fill="#A41F1F"/>
</svg>
